<svg xmlns="http://www.w3.org/2000/svg" xmlns:xlink="http://www.w3.org/1999/xlink" width="1080" zoomAndPan="magnify" viewBox="0 0 810 389.999986" height="520" preserveAspectRatio="xMidYMid meet" version="1.0"><defs><g/></defs><g fill="#000000" fill-opacity="1"><g transform="translate(32.995284, 266.64291)"><g><path d="M 74.96875 -33.84375 C 79.5625 -33.84375 83.476562 -34.851562 86.71875 -36.875 C 89.96875 -38.90625 92.601562 -41.570312 94.625 -44.875 C 96.65625 -48.1875 98.140625 -52.003906 99.078125 -56.328125 C 100.023438 -60.648438 100.5 -65.175781 100.5 -69.90625 L 100.5 -143.859375 L 140.015625 -143.859375 L 140.015625 -69.90625 C 140.015625 -59.90625 138.726562 -50.546875 136.15625 -41.828125 C 133.59375 -33.117188 129.609375 -25.585938 124.203125 -19.234375 C 118.804688 -12.890625 112.019531 -7.894531 103.84375 -4.25 C 95.675781 -0.601562 86.050781 1.21875 74.96875 1.21875 C 63.488281 1.21875 53.660156 -0.703125 45.484375 -4.546875 C 37.316406 -8.398438 30.597656 -13.566406 25.328125 -20.046875 C 20.054688 -26.535156 16.203125 -34.066406 13.765625 -42.640625 C 11.335938 -51.222656 10.125 -60.3125 10.125 -69.90625 L 10.125 -143.859375 L 49.640625 -143.859375 L 49.640625 -69.90625 C 49.640625 -65.175781 50.113281 -60.613281 51.0625 -56.21875 C 52.007812 -51.832031 53.492188 -47.984375 55.515625 -44.671875 C 57.546875 -41.367188 60.144531 -38.738281 63.3125 -36.78125 C 66.488281 -34.820312 70.375 -33.84375 74.96875 -33.84375 Z M 74.96875 -33.84375 "/></g></g></g><g fill="#000000" fill-opacity="1"><g transform="translate(183.13327, 266.64291)"><g><path d="M 51.875 -70.71875 L 51.875 0 L 12.359375 0 L 12.359375 -143.859375 L 43.15625 -143.859375 L 100.90625 -70.71875 L 100.90625 -143.859375 L 140.421875 -143.859375 L 140.421875 0 L 109.015625 0 Z M 51.875 -70.71875 "/></g></g></g><g fill="#000000" fill-opacity="1"><g transform="translate(335.90527, 266.64291)"><g><path d="M 12.359375 0 L 12.359375 -143.859375 L 51.875 -143.859375 L 51.875 0 Z M 12.359375 0 "/></g></g></g><g fill="#000000" fill-opacity="1"><g transform="translate(400.134347, 266.64291)"><g><path d="M 12.359375 0 L 12.359375 -143.859375 L 74.359375 -143.859375 C 81.390625 -143.859375 87.875 -142.40625 93.8125 -139.5 C 99.757812 -136.601562 104.859375 -132.820312 109.109375 -128.15625 C 113.367188 -123.5 116.710938 -118.164062 119.140625 -112.15625 C 121.578125 -106.144531 122.796875 -100.097656 122.796875 -94.015625 C 122.796875 -87.671875 121.644531 -81.492188 119.34375 -75.484375 C 117.050781 -69.472656 113.84375 -64.132812 109.71875 -59.46875 C 105.601562 -54.8125 100.601562 -51.097656 94.71875 -48.328125 C 88.84375 -45.554688 82.394531 -44.171875 75.375 -44.171875 L 51.875 -44.171875 L 51.875 0 Z M 51.875 -78.625 L 72.75 -78.625 C 75.175781 -78.625 77.4375 -79.738281 79.53125 -81.96875 C 81.625 -84.195312 82.671875 -88.210938 82.671875 -94.015625 C 82.671875 -99.960938 81.453125 -104.015625 79.015625 -106.171875 C 76.585938 -108.335938 74.160156 -109.421875 71.734375 -109.421875 L 51.875 -109.421875 Z M 51.875 -78.625 "/></g></g></g><g fill="#000000" fill-opacity="1"><g transform="translate(525.755889, 266.64291)"><g><path d="M 12.359375 0 L 12.359375 -143.859375 L 51.875 -143.859375 L 51.875 -34.453125 L 117.125 -34.453125 L 117.125 0 Z M 12.359375 0 "/></g></g></g><g fill="#000000" fill-opacity="1"><g transform="translate(644.89369, 266.64291)"><g><path d="M 40.125 -143.859375 L 65.859375 -81.65625 L 92.1875 -143.859375 L 135.15625 -143.859375 L 85.5 -47.609375 L 85.5 0 L 46.203125 0 L 46.203125 -48.015625 L -2.640625 -143.859375 Z M 40.125 -143.859375 "/></g></g></g></svg>